<svg xmlns="http://www.w3.org/2000/svg" viewBox="0 0 24 24">
  <path fill="#000" d="M7.5 4A2.5 2.5 0 0 0 5 6.5v11A2.5 2.5 0 0 0 7.5 20h9a2.5 2.5 0 0 0 2.5-2.5v-11A2.5 2.5 0 0 0 16.5 4h-9Zm0 2h9a.5.5 0 0 1 .5.5v11a.5.5 0 0 1-.5.5h-9a.5.5 0 0 1-.5-.5v-11A.5.5 0 0 1 7.5 6Z"/>
  <path fill="#000" d="M10.2 8.35a.75.75 0 0 1 .78.04l4.6 2.9a.75.75 0 0 1 0 1.27l-4.6 2.9A.75.75 0 0 1 9.85 14.8V9.05c0-.29.14-.56.35-.7Z"/>
  <path fill="#000" d="M3.25 7.5a.75.75 0 0 1 .75-.75h1v1.5H4a.75.75 0 0 1-.75-.75Zm0 4.5a.75.75 0 0 1 .75-.75h1v1.5H4a.75.75 0 0 1-.75-.75Zm0 4.5a.75.75 0 0 1 .75-.75h1v1.5H4a.75.75 0 0 1-.75-.75Zm15.75-9.75h1a.75.75 0 0 1 0 1.5h-1v-1.5Zm0 4.5h1a.75.75 0 0 1 0 1.5h-1v-1.5Zm0 4.5h1a.75.75 0 0 1 0 1.5h-1v-1.5Z"/>
</svg>
