<svg xmlns="http://www.w3.org/2000/svg" viewBox="0 0 512 512" role="img" aria-label="NeonWave">
  <defs>
    <radialGradient id="bgGlow" cx="50%" cy="42%" r="68%">
      <stop offset="0%" stop-color="#102f44"/>
      <stop offset="48%" stop-color="#07131f"/>
      <stop offset="100%" stop-color="#02050c"/>
    </radialGradient>

    <linearGradient id="neonStroke" x1="92" y1="92" x2="420" y2="420">
      <stop offset="0%" stop-color="#00f5ff"/>
      <stop offset="52%" stop-color="#5c7cff"/>
      <stop offset="100%" stop-color="#ff7a18"/>
    </linearGradient>

    <linearGradient id="noteFill" x1="170" y1="130" x2="350" y2="382">
      <stop offset="0%" stop-color="#00f5ff"/>
      <stop offset="62%" stop-color="#6f7dff"/>
      <stop offset="100%" stop-color="#ff9a2f"/>
    </linearGradient>

    <filter id="softGlow" x="-80%" y="-80%" width="260%" height="260%">
      <feGaussianBlur stdDeviation="7" result="blur"/>
      <feColorMatrix in="blur" type="matrix"
        values="0 0 0 0 0
                0 0 0 0 0.88
                0 0 0 0 1
                0 0 0 0.85 0" result="cyanGlow"/>
      <feMerge>
        <feMergeNode in="cyanGlow"/>
        <feMergeNode in="SourceGraphic"/>
      </feMerge>
    </filter>

    <filter id="hotGlow" x="-70%" y="-70%" width="240%" height="240%">
      <feGaussianBlur stdDeviation="5" result="blur"/>
      <feColorMatrix in="blur" type="matrix"
        values="0 0 0 0 1
                0 0 0 0 0.35
                0 0 0 0 0.02
                0 0 0 0.78 0" result="orangeGlow"/>
      <feMerge>
        <feMergeNode in="orangeGlow"/>
        <feMergeNode in="SourceGraphic"/>
      </feMerge>
    </filter>
  </defs>

  <rect x="24" y="24" width="464" height="464" rx="96" fill="url(#bgGlow)"/>

  <path d="M96 300
           C126 222 180 194 232 218
           C260 231 274 254 302 260
           C344 268 382 242 416 190"
        fill="none"
        stroke="url(#neonStroke)"
        stroke-width="18"
        stroke-linecap="round"
        filter="url(#softGlow)"/>

  <path d="M84 344
           C122 315 150 315 184 344
           C218 374 252 374 286 344
           C320 315 352 315 392 344"
        fill="none"
        stroke="#00f5ff"
        stroke-width="10"
        stroke-linecap="round"
        opacity="0.8"
        filter="url(#softGlow)"/>

  <g filter="url(#softGlow)">
    <path d="M206 132
             C206 122 214 114 224 114
             H328
             C338 114 346 122 346 132
             V304
             C346 348 314 376 274 376
             C238 376 212 356 212 328
             C212 300 238 280 272 280
             C290 280 306 286 318 296
             V174
             H234
             V350
             C234 394 202 422 162 422
             C126 422 100 402 100 374
             C100 346 126 326 160 326
             C178 326 194 332 206 342
             Z"
          fill="url(#noteFill)"/>
  </g>

  <g fill="none" stroke-linecap="round" stroke-width="8" opacity="0.95">
    <path d="M116 126 H156" stroke="#00f5ff" filter="url(#softGlow)"/>
    <path d="M356 126 H396" stroke="#ff8a22" filter="url(#hotGlow)"/>
    <path d="M98 172 H138" stroke="#00f5ff" filter="url(#softGlow)"/>
    <path d="M374 172 H414" stroke="#ff8a22" filter="url(#hotGlow)"/>
  </g>

  <g fill="#00f5ff" filter="url(#softGlow)">
    <circle cx="164" cy="126" r="9"/>
    <circle cx="146" cy="172" r="7"/>
    <circle cx="88" cy="300" r="7"/>
  </g>

  <g fill="#ff8a22" filter="url(#hotGlow)">
    <circle cx="348" cy="126" r="9"/>
    <circle cx="366" cy="172" r="7"/>
    <circle cx="424" cy="190" r="7"/>
  </g>

  <rect x="42" y="42" width="428" height="428" rx="78"
        fill="none"
        stroke="url(#neonStroke)"
        stroke-width="4"
        opacity="0.55"/>
</svg>
