<svg xmlns="http://www.w3.org/2000/svg" viewBox="0 0 96 96" role="img" aria-label="DIR">
  <defs>
    <linearGradient id="fbg" x1="0" y1="0" x2="1" y2="1">
      <stop offset="0%" stop-color="#0a121d"/>
      <stop offset="100%" stop-color="#0d1626"/>
    </linearGradient>
    <filter id="g" x="-40%" y="-40%" width="180%" height="180%">
      <feGaussianBlur stdDeviation="2.2" result="b"/>
      <feMerge><feMergeNode in="b"/><feMergeNode in="SourceGraphic"/></feMerge>
    </filter>
  </defs>

  <path d="M12 28h26l8-8h18a8 8 0 0 1 8 8v4H20a8 8 0 0 0-8 8z"
        fill="#101b2b" stroke="#ffd400" stroke-width="2.2"/>
  <path d="M12 36h72a8 8 0 0 1 8 8v28a12 12 0 0 1-12 12H20A12 12 0 0 1 8 72V40a4 4 0 0 1 4-4z"
        fill="url(#fbg)" stroke="#ffd400" stroke-width="2.4"/>

  <path d="M24 52h14m7 0h26m-42 10h24m6 0h11"
        stroke="#ffd400" stroke-width="1.8" stroke-linecap="round" opacity="0.95"/>
  <circle cx="24" cy="52" r="2.2" fill="#ffd400" filter="url(#g)"/>
  <circle cx="59" cy="52" r="2.2" fill="#ffd400" filter="url(#g)"/>
  <circle cx="40" cy="62" r="2.2" fill="#ffd400" filter="url(#g)"/>
  <circle cx="72" cy="62" r="2.2" fill="#ffd400" filter="url(#g)"/>

  <rect x="18" y="68" width="32" height="11" rx="5.5" fill="#08111f" stroke="#ffd400" stroke-width="2" filter="url(#g)"/>
  <text x="34" y="76.5" text-anchor="middle"
        font-family="Arial, Helvetica, sans-serif" font-size="9.8" font-weight="700"
        letter-spacing="1.5" fill="#ffd400">DIR</text>
</svg>