<svg xmlns="http://www.w3.org/2000/svg" viewBox="0 0 96 96" role="img" aria-label="MP3">
  <defs>
    <linearGradient id="bg" x1="0" y1="0" x2="1" y2="1">
      <stop offset="0%" stop-color="#09111c"/>
      <stop offset="100%" stop-color="#0d1424"/>
    </linearGradient>
    <filter id="glow" x="-40%" y="-40%" width="180%" height="180%">
      <feGaussianBlur stdDeviation="2.2" result="b"/>
      <feMerge><feMergeNode in="b"/><feMergeNode in="SourceGraphic"/></feMerge>
    </filter>
    <filter id="soft" x="-40%" y="-40%" width="180%" height="180%">
      <feGaussianBlur stdDeviation="1.2"/>
    </filter>
  </defs>

  <path d="M22 8h36l16 16v56a8 8 0 0 1-8 8H22a8 8 0 0 1-8-8V16a8 8 0 0 1 8-8z"
        fill="url(#bg)" stroke="#b58cff" stroke-width="2.2"/>
  <path d="M58 8v12a8 8 0 0 0 8 8h8" fill="none" stroke="#b58cff" stroke-width="2.2"/>
  <path d="M58 8l16 16H66a8 8 0 0 1-8-8V8z" fill="#b58cff" fill-opacity="0.12" stroke="#b58cff" stroke-width="1.8"/>

  <path d="M24 28h10m6 0h17m-31 10h18m6 0h14m-38 10h10m6 0h20"
        stroke="#b58cff" stroke-width="1.7" stroke-linecap="round" opacity="0.9" filter="url(#soft)"/>
  <circle cx="26" cy="28" r="2.2" fill="#b58cff" filter="url(#glow)"/>
  <circle cx="57" cy="28" r="2.2" fill="#b58cff" filter="url(#glow)"/>
  <circle cx="44" cy="38" r="2.2" fill="#b58cff" filter="url(#glow)"/>
  <circle cx="66" cy="38" r="2.2" fill="#b58cff" filter="url(#glow)"/>
  <circle cx="36" cy="48" r="2.2" fill="#b58cff" filter="url(#glow)"/>
  <circle cx="64" cy="48" r="2.2" fill="#b58cff" filter="url(#glow)"/>

  <rect x="18" y="58" width="60" height="18" rx="9"
        fill="#08111f" stroke="#b58cff" stroke-width="2.2" filter="url(#glow)"/>
  <text x="48" y="70.5" text-anchor="middle"
        font-family="Arial, Helvetica, sans-serif" font-size="14" font-weight="700"
        letter-spacing="1.2" fill="#b58cff">MP3</text>

  <path d="M18 82h22m18 0h20" stroke="#b58cff" stroke-width="2.1" stroke-linecap="round" opacity="0.9"/>
</svg>